<mxfile host="app.diagrams.net" agent="Mozilla/5.0 (Windows NT 10.0; Win64; x64) AppleWebKit/537.36 (KHTML, like Gecko) Chrome/131.0.0.0 Safari/537.36 Edg/131.0.0.0" version="26.0.6">
  <diagram name="PÃ¡gina-1" id="AEX8GONJc5cp-BaiUtCe">
    <mxGraphModel dx="1253" dy="706" grid="1" gridSize="10" guides="1" tooltips="1" connect="1" arrows="1" fold="1" page="1" pageScale="1" pageWidth="827" pageHeight="1169" math="0" shadow="0">
      <root>
        <mxCell id="0" />
        <mxCell id="1" parent="0" />
        <mxCell id="y3QHWY9e4oZUEy-OPm5N-20" value="pacientes" style="swimlane;fontStyle=0;childLayout=stackLayout;horizontal=1;startSize=30;horizontalStack=0;resizeParent=1;resizeParentMax=0;resizeLast=0;collapsible=1;marginBottom=0;whiteSpace=wrap;html=1;container=0;labelBackgroundColor=none;fillColor=#21C0A5;strokeColor=#006658;fontColor=#5C5C5C;" vertex="1" parent="1">
          <mxGeometry x="94" y="274" width="140" height="130" as="geometry" />
        </mxCell>
        <mxCell id="y3QHWY9e4oZUEy-OPm5N-21" value="id_paciente" style="text;strokeColor=none;fillColor=none;align=left;verticalAlign=middle;spacingLeft=4;spacingRight=4;overflow=hidden;points=[[0,0.5],[1,0.5]];portConstraint=eastwest;rotatable=0;whiteSpace=wrap;html=1;labelBackgroundColor=none;fontColor=#5C5C5C;" vertex="1" parent="1">
          <mxGeometry x="94" y="304" width="140" height="20" as="geometry" />
        </mxCell>
        <mxCell id="y3QHWY9e4oZUEy-OPm5N-22" value="nome" style="text;strokeColor=none;fillColor=none;align=left;verticalAlign=middle;spacingLeft=4;spacingRight=4;overflow=hidden;points=[[0,0.5],[1,0.5]];portConstraint=eastwest;rotatable=0;whiteSpace=wrap;html=1;labelBackgroundColor=none;fontColor=#5C5C5C;" vertex="1" parent="1">
          <mxGeometry x="94" y="323" width="60" height="20" as="geometry" />
        </mxCell>
        <mxCell id="y3QHWY9e4oZUEy-OPm5N-23" value="nascimento" style="text;strokeColor=none;fillColor=none;align=left;verticalAlign=middle;spacingLeft=4;spacingRight=4;overflow=hidden;points=[[0,0.5],[1,0.5]];portConstraint=eastwest;rotatable=0;whiteSpace=wrap;html=1;labelBackgroundColor=none;fontColor=#5C5C5C;" vertex="1" parent="1">
          <mxGeometry x="94" y="343" width="80" height="20" as="geometry" />
        </mxCell>
        <mxCell id="y3QHWY9e4oZUEy-OPm5N-27" value="endereco&lt;span style=&quot;color: rgba(0, 0, 0, 0); font-family: monospace; font-size: 0px; text-wrap-mode: nowrap;&quot;&gt;%3CmxGraphModel%3E%3Croot%3E%3CmxCell%20id%3D%220%22%2F%3E%3CmxCell%20id%3D%221%22%20parent%3D%220%22%2F%3E%3CmxCell%20id%3D%222%22%20value%3D%22nascimento%22%20style%3D%22text%3BstrokeColor%3Dnone%3BfillColor%3Dnone%3Balign%3Dleft%3BverticalAlign%3Dmiddle%3BspacingLeft%3D4%3BspacingRight%3D4%3Boverflow%3Dhidden%3Bpoints%3D%5B%5B0%2C0.5%5D%2C%5B1%2C0.5%5D%5D%3BportConstraint%3Deastwest%3Brotatable%3D0%3BwhiteSpace%3Dwrap%3Bhtml%3D1%3B%22%20vertex%3D%221%22%20parent%3D%221%22%3E%3CmxGeometry%20x%3D%22230%22%20y%3D%22340%22%20width%3D%2280%22%20height%3D%2220%22%20as%3D%22geometry%22%2F%3E%3C%2FmxCell%3E%3C%2Froot%3E%3C%2FmxGraphModel%3E&lt;/span&gt;" style="text;strokeColor=none;fillColor=none;align=left;verticalAlign=middle;spacingLeft=4;spacingRight=4;overflow=hidden;points=[[0,0.5],[1,0.5]];portConstraint=eastwest;rotatable=0;whiteSpace=wrap;html=1;labelBackgroundColor=none;fontColor=#5C5C5C;" vertex="1" parent="1">
          <mxGeometry x="94" y="363" width="80" height="20" as="geometry" />
        </mxCell>
        <mxCell id="y3QHWY9e4oZUEy-OPm5N-28" value="telefone" style="text;strokeColor=none;fillColor=none;align=left;verticalAlign=middle;spacingLeft=4;spacingRight=4;overflow=hidden;points=[[0,0.5],[1,0.5]];portConstraint=eastwest;rotatable=0;whiteSpace=wrap;html=1;labelBackgroundColor=none;fontColor=#5C5C5C;" vertex="1" parent="1">
          <mxGeometry x="94" y="383" width="80" height="20" as="geometry" />
        </mxCell>
        <mxCell id="y3QHWY9e4oZUEy-OPm5N-29" value="medicos" style="swimlane;fontStyle=0;childLayout=stackLayout;horizontal=1;startSize=30;horizontalStack=0;resizeParent=1;resizeParentMax=0;resizeLast=0;collapsible=1;marginBottom=0;whiteSpace=wrap;html=1;container=0;labelBackgroundColor=none;fillColor=#21C0A5;strokeColor=#006658;fontColor=#5C5C5C;" vertex="1" parent="1">
          <mxGeometry x="594" y="274" width="140" height="170" as="geometry" />
        </mxCell>
        <mxCell id="y3QHWY9e4oZUEy-OPm5N-30" value="id_medico" style="text;strokeColor=none;fillColor=none;align=left;verticalAlign=middle;spacingLeft=4;spacingRight=4;overflow=hidden;points=[[0,0.5],[1,0.5]];portConstraint=eastwest;rotatable=0;whiteSpace=wrap;html=1;labelBackgroundColor=none;fontColor=#5C5C5C;" vertex="1" parent="1">
          <mxGeometry x="594" y="304" width="140" height="20" as="geometry" />
        </mxCell>
        <mxCell id="y3QHWY9e4oZUEy-OPm5N-31" value="nome" style="text;strokeColor=none;fillColor=none;align=left;verticalAlign=middle;spacingLeft=4;spacingRight=4;overflow=hidden;points=[[0,0.5],[1,0.5]];portConstraint=eastwest;rotatable=0;whiteSpace=wrap;html=1;labelBackgroundColor=none;fontColor=#5C5C5C;" vertex="1" parent="1">
          <mxGeometry x="594" y="323" width="60" height="20" as="geometry" />
        </mxCell>
        <mxCell id="y3QHWY9e4oZUEy-OPm5N-32" value="nascimento" style="text;strokeColor=none;fillColor=none;align=left;verticalAlign=middle;spacingLeft=4;spacingRight=4;overflow=hidden;points=[[0,0.5],[1,0.5]];portConstraint=eastwest;rotatable=0;whiteSpace=wrap;html=1;labelBackgroundColor=none;fontColor=#5C5C5C;" vertex="1" parent="1">
          <mxGeometry x="594" y="362" width="80" height="20" as="geometry" />
        </mxCell>
        <mxCell id="y3QHWY9e4oZUEy-OPm5N-33" value="endereco&lt;span style=&quot;color: rgba(0, 0, 0, 0); font-family: monospace; font-size: 0px; text-wrap-mode: nowrap;&quot;&gt;%3CmxGraphModel%3E%3Croot%3E%3CmxCell%20id%3D%220%22%2F%3E%3CmxCell%20id%3D%221%22%20parent%3D%220%22%2F%3E%3CmxCell%20id%3D%222%22%20value%3D%22nascimento%22%20style%3D%22text%3BstrokeColor%3Dnone%3BfillColor%3Dnone%3Balign%3Dleft%3BverticalAlign%3Dmiddle%3BspacingLeft%3D4%3BspacingRight%3D4%3Boverflow%3Dhidden%3Bpoints%3D%5B%5B0%2C0.5%5D%2C%5B1%2C0.5%5D%5D%3BportConstraint%3Deastwest%3Brotatable%3D0%3BwhiteSpace%3Dwrap%3Bhtml%3D1%3B%22%20vertex%3D%221%22%20parent%3D%221%22%3E%3CmxGeometry%20x%3D%22230%22%20y%3D%22340%22%20width%3D%2280%22%20height%3D%2220%22%20as%3D%22geometry%22%2F%3E%3C%2FmxCell%3E%3C%2Froot%3E%3C%2FmxGraphModel%3E&lt;/span&gt;" style="text;strokeColor=none;fillColor=none;align=left;verticalAlign=middle;spacingLeft=4;spacingRight=4;overflow=hidden;points=[[0,0.5],[1,0.5]];portConstraint=eastwest;rotatable=0;whiteSpace=wrap;html=1;labelBackgroundColor=none;fontColor=#5C5C5C;" vertex="1" parent="1">
          <mxGeometry x="594" y="382" width="80" height="20" as="geometry" />
        </mxCell>
        <mxCell id="y3QHWY9e4oZUEy-OPm5N-34" value="telefone" style="text;strokeColor=none;fillColor=none;align=left;verticalAlign=middle;spacingLeft=4;spacingRight=4;overflow=hidden;points=[[0,0.5],[1,0.5]];portConstraint=eastwest;rotatable=0;whiteSpace=wrap;html=1;labelBackgroundColor=none;fontColor=#5C5C5C;" vertex="1" parent="1">
          <mxGeometry x="594" y="402" width="80" height="20" as="geometry" />
        </mxCell>
        <mxCell id="y3QHWY9e4oZUEy-OPm5N-35" value="especialidade" style="text;strokeColor=none;fillColor=none;align=left;verticalAlign=middle;spacingLeft=4;spacingRight=4;overflow=hidden;points=[[0,0.5],[1,0.5]];portConstraint=eastwest;rotatable=0;whiteSpace=wrap;html=1;labelBackgroundColor=none;fontColor=#5C5C5C;" vertex="1" parent="1">
          <mxGeometry x="594" y="342" width="90" height="20" as="geometry" />
        </mxCell>
        <mxCell id="y3QHWY9e4oZUEy-OPm5N-36" value="email" style="text;strokeColor=none;fillColor=none;align=left;verticalAlign=middle;spacingLeft=4;spacingRight=4;overflow=hidden;points=[[0,0.5],[1,0.5]];portConstraint=eastwest;rotatable=0;whiteSpace=wrap;html=1;labelBackgroundColor=none;fontColor=#5C5C5C;" vertex="1" parent="1">
          <mxGeometry x="594" y="421" width="60" height="20" as="geometry" />
        </mxCell>
        <mxCell id="y3QHWY9e4oZUEy-OPm5N-44" value="enfermeiro" style="swimlane;fontStyle=0;childLayout=stackLayout;horizontal=1;startSize=30;horizontalStack=0;resizeParent=1;resizeParentMax=0;resizeLast=0;collapsible=1;marginBottom=0;whiteSpace=wrap;html=1;container=0;labelBackgroundColor=none;fillColor=#21C0A5;strokeColor=#006658;fontColor=#5C5C5C;" vertex="1" parent="1">
          <mxGeometry x="342" y="274" width="140" height="170" as="geometry" />
        </mxCell>
        <mxCell id="y3QHWY9e4oZUEy-OPm5N-45" value="id_enfermeiro" style="text;strokeColor=none;fillColor=none;align=left;verticalAlign=middle;spacingLeft=4;spacingRight=4;overflow=hidden;points=[[0,0.5],[1,0.5]];portConstraint=eastwest;rotatable=0;whiteSpace=wrap;html=1;labelBackgroundColor=none;fontColor=#5C5C5C;" vertex="1" parent="1">
          <mxGeometry x="342" y="304" width="140" height="20" as="geometry" />
        </mxCell>
        <mxCell id="y3QHWY9e4oZUEy-OPm5N-46" value="nome" style="text;strokeColor=none;fillColor=none;align=left;verticalAlign=middle;spacingLeft=4;spacingRight=4;overflow=hidden;points=[[0,0.5],[1,0.5]];portConstraint=eastwest;rotatable=0;whiteSpace=wrap;html=1;labelBackgroundColor=none;fontColor=#5C5C5C;" vertex="1" parent="1">
          <mxGeometry x="342" y="323" width="132" height="20" as="geometry" />
        </mxCell>
        <mxCell id="y3QHWY9e4oZUEy-OPm5N-47" value="nascimento" style="text;strokeColor=none;fillColor=none;align=left;verticalAlign=middle;spacingLeft=4;spacingRight=4;overflow=hidden;points=[[0,0.5],[1,0.5]];portConstraint=eastwest;rotatable=0;whiteSpace=wrap;html=1;labelBackgroundColor=none;fontColor=#5C5C5C;" vertex="1" parent="1">
          <mxGeometry x="342" y="362" width="80" height="20" as="geometry" />
        </mxCell>
        <mxCell id="y3QHWY9e4oZUEy-OPm5N-48" value="endereco&lt;span style=&quot;color: rgba(0, 0, 0, 0); font-family: monospace; font-size: 0px; text-wrap-mode: nowrap;&quot;&gt;%3CmxGraphModel%3E%3Croot%3E%3CmxCell%20id%3D%220%22%2F%3E%3CmxCell%20id%3D%221%22%20parent%3D%220%22%2F%3E%3CmxCell%20id%3D%222%22%20value%3D%22nascimento%22%20style%3D%22text%3BstrokeColor%3Dnone%3BfillColor%3Dnone%3Balign%3Dleft%3BverticalAlign%3Dmiddle%3BspacingLeft%3D4%3BspacingRight%3D4%3Boverflow%3Dhidden%3Bpoints%3D%5B%5B0%2C0.5%5D%2C%5B1%2C0.5%5D%5D%3BportConstraint%3Deastwest%3Brotatable%3D0%3BwhiteSpace%3Dwrap%3Bhtml%3D1%3B%22%20vertex%3D%221%22%20parent%3D%221%22%3E%3CmxGeometry%20x%3D%22230%22%20y%3D%22340%22%20width%3D%2280%22%20height%3D%2220%22%20as%3D%22geometry%22%2F%3E%3C%2FmxCell%3E%3C%2Froot%3E%3C%2FmxGraphModel%3E&lt;/span&gt;" style="text;strokeColor=none;fillColor=none;align=left;verticalAlign=middle;spacingLeft=4;spacingRight=4;overflow=hidden;points=[[0,0.5],[1,0.5]];portConstraint=eastwest;rotatable=0;whiteSpace=wrap;html=1;labelBackgroundColor=none;fontColor=#5C5C5C;" vertex="1" parent="1">
          <mxGeometry x="342" y="383" width="80" height="20" as="geometry" />
        </mxCell>
        <mxCell id="y3QHWY9e4oZUEy-OPm5N-49" value="telefone" style="text;strokeColor=none;fillColor=none;align=left;verticalAlign=middle;spacingLeft=4;spacingRight=4;overflow=hidden;points=[[0,0.5],[1,0.5]];portConstraint=eastwest;rotatable=0;whiteSpace=wrap;html=1;labelBackgroundColor=none;fontColor=#5C5C5C;" vertex="1" parent="1">
          <mxGeometry x="342" y="402" width="80" height="20" as="geometry" />
        </mxCell>
        <mxCell id="y3QHWY9e4oZUEy-OPm5N-50" value="departamento" style="text;strokeColor=none;fillColor=none;align=left;verticalAlign=middle;spacingLeft=4;spacingRight=4;overflow=hidden;points=[[0,0.5],[1,0.5]];portConstraint=eastwest;rotatable=0;whiteSpace=wrap;html=1;labelBackgroundColor=none;fontColor=#5C5C5C;" vertex="1" parent="1">
          <mxGeometry x="342" y="342" width="132" height="20" as="geometry" />
        </mxCell>
        <mxCell id="y3QHWY9e4oZUEy-OPm5N-51" value="email" style="text;strokeColor=none;fillColor=none;align=left;verticalAlign=middle;spacingLeft=4;spacingRight=4;overflow=hidden;points=[[0,0.5],[1,0.5]];portConstraint=eastwest;rotatable=0;whiteSpace=wrap;html=1;labelBackgroundColor=none;fontColor=#5C5C5C;" vertex="1" parent="1">
          <mxGeometry x="342" y="421" width="60" height="20" as="geometry" />
        </mxCell>
        <mxCell id="y3QHWY9e4oZUEy-OPm5N-85" style="edgeStyle=orthogonalEdgeStyle;rounded=0;orthogonalLoop=1;jettySize=auto;html=1;exitX=0.5;exitY=1;exitDx=0;exitDy=0;entryX=0.5;entryY=0;entryDx=0;entryDy=0;labelBackgroundColor=none;strokeColor=#006658;fontColor=default;" edge="1" parent="1" source="y3QHWY9e4oZUEy-OPm5N-53" target="y3QHWY9e4oZUEy-OPm5N-74">
          <mxGeometry relative="1" as="geometry">
            <mxPoint x="407.8571428571429" y="674" as="targetPoint" />
          </mxGeometry>
        </mxCell>
        <mxCell id="y3QHWY9e4oZUEy-OPm5N-53" value="consulta" style="swimlane;fontStyle=0;childLayout=stackLayout;horizontal=1;startSize=30;horizontalStack=0;resizeParent=1;resizeParentMax=0;resizeLast=0;collapsible=1;marginBottom=0;whiteSpace=wrap;html=1;container=0;labelBackgroundColor=none;fillColor=#21C0A5;strokeColor=#006658;fontColor=#5C5C5C;" vertex="1" parent="1">
          <mxGeometry x="338" y="524" width="140" height="140" as="geometry" />
        </mxCell>
        <mxCell id="y3QHWY9e4oZUEy-OPm5N-54" value="id_paciente" style="text;strokeColor=none;fillColor=none;align=left;verticalAlign=middle;spacingLeft=4;spacingRight=4;overflow=hidden;points=[[0,0.5],[1,0.5]];portConstraint=eastwest;rotatable=0;whiteSpace=wrap;html=1;labelBackgroundColor=none;fontColor=#5C5C5C;" vertex="1" parent="1">
          <mxGeometry x="338" y="554" width="140" height="20" as="geometry" />
        </mxCell>
        <mxCell id="y3QHWY9e4oZUEy-OPm5N-55" value="id_consulta" style="text;strokeColor=none;fillColor=none;align=left;verticalAlign=middle;spacingLeft=4;spacingRight=4;overflow=hidden;points=[[0,0.5],[1,0.5]];portConstraint=eastwest;rotatable=0;whiteSpace=wrap;html=1;labelBackgroundColor=none;fontColor=#5C5C5C;" vertex="1" parent="1">
          <mxGeometry x="338" y="573" width="76" height="20" as="geometry" />
        </mxCell>
        <mxCell id="y3QHWY9e4oZUEy-OPm5N-56" value="data" style="text;strokeColor=none;fillColor=none;align=left;verticalAlign=middle;spacingLeft=4;spacingRight=4;overflow=hidden;points=[[0,0.5],[1,0.5]];portConstraint=eastwest;rotatable=0;whiteSpace=wrap;html=1;labelBackgroundColor=none;fontColor=#5C5C5C;" vertex="1" parent="1">
          <mxGeometry x="338" y="626" width="80" height="20" as="geometry" />
        </mxCell>
        <mxCell id="y3QHWY9e4oZUEy-OPm5N-57" value="hora" style="text;strokeColor=none;fillColor=none;align=left;verticalAlign=middle;spacingLeft=4;spacingRight=4;overflow=hidden;points=[[0,0.5],[1,0.5]];portConstraint=eastwest;rotatable=0;whiteSpace=wrap;html=1;labelBackgroundColor=none;fontColor=#5C5C5C;" vertex="1" parent="1">
          <mxGeometry x="338" y="641" width="80" height="20" as="geometry" />
        </mxCell>
        <mxCell id="y3QHWY9e4oZUEy-OPm5N-59" value="id_medico" style="text;strokeColor=none;fillColor=none;align=left;verticalAlign=middle;spacingLeft=4;spacingRight=4;overflow=hidden;points=[[0,0.5],[1,0.5]];portConstraint=eastwest;rotatable=0;whiteSpace=wrap;html=1;labelBackgroundColor=none;fontColor=#5C5C5C;" vertex="1" parent="1">
          <mxGeometry x="338" y="592" width="90" height="20" as="geometry" />
        </mxCell>
        <mxCell id="y3QHWY9e4oZUEy-OPm5N-61" value="" style="endArrow=classic;html=1;rounded=0;entryX=0.5;entryY=0;entryDx=0;entryDy=0;exitX=0.828;exitY=1.076;exitDx=0;exitDy=0;exitPerimeter=0;labelBackgroundColor=none;strokeColor=#006658;fontColor=default;" edge="1" parent="1" source="y3QHWY9e4oZUEy-OPm5N-28" target="y3QHWY9e4oZUEy-OPm5N-53">
          <mxGeometry width="50" height="50" relative="1" as="geometry">
            <mxPoint x="154" y="404" as="sourcePoint" />
            <mxPoint x="394" y="264" as="targetPoint" />
            <Array as="points">
              <mxPoint x="160" y="450" />
              <mxPoint x="160" y="484" />
              <mxPoint x="274" y="484" />
              <mxPoint x="408" y="484" />
            </Array>
          </mxGeometry>
        </mxCell>
        <mxCell id="y3QHWY9e4oZUEy-OPm5N-63" value="" style="edgeStyle=segmentEdgeStyle;endArrow=classic;html=1;curved=0;rounded=0;endSize=8;startSize=8;entryX=0.5;entryY=0;entryDx=0;entryDy=0;exitX=0.5;exitY=1;exitDx=0;exitDy=0;labelBackgroundColor=none;strokeColor=#006658;fontColor=default;" edge="1" parent="1" source="y3QHWY9e4oZUEy-OPm5N-29" target="y3QHWY9e4oZUEy-OPm5N-53">
          <mxGeometry width="50" height="50" relative="1" as="geometry">
            <mxPoint x="714" y="474" as="sourcePoint" />
            <mxPoint x="444" y="404" as="targetPoint" />
            <Array as="points">
              <mxPoint x="664" y="484" />
              <mxPoint x="408" y="484" />
            </Array>
          </mxGeometry>
        </mxCell>
        <mxCell id="y3QHWY9e4oZUEy-OPm5N-74" value="receita_medica" style="swimlane;fontStyle=0;childLayout=stackLayout;horizontal=1;startSize=30;horizontalStack=0;resizeParent=1;resizeParentMax=0;resizeLast=0;collapsible=1;marginBottom=0;whiteSpace=wrap;html=1;container=0;labelBackgroundColor=none;fillColor=#21C0A5;strokeColor=#006658;fontColor=#5C5C5C;" vertex="1" parent="1">
          <mxGeometry x="338" y="694" width="140" height="200" as="geometry" />
        </mxCell>
        <mxCell id="y3QHWY9e4oZUEy-OPm5N-75" value="id_receita" style="text;strokeColor=none;fillColor=none;align=left;verticalAlign=middle;spacingLeft=4;spacingRight=4;overflow=hidden;points=[[0,0.5],[1,0.5]];portConstraint=eastwest;rotatable=0;whiteSpace=wrap;html=1;labelBackgroundColor=none;fontColor=#5C5C5C;" vertex="1" parent="1">
          <mxGeometry x="338" y="724" width="140" height="20" as="geometry" />
        </mxCell>
        <mxCell id="y3QHWY9e4oZUEy-OPm5N-76" value="id_paciente" style="text;strokeColor=none;fillColor=none;align=left;verticalAlign=middle;spacingLeft=4;spacingRight=4;overflow=hidden;points=[[0,0.5],[1,0.5]];portConstraint=eastwest;rotatable=0;whiteSpace=wrap;html=1;labelBackgroundColor=none;fontColor=#5C5C5C;" vertex="1" parent="1">
          <mxGeometry x="338" y="743" width="76" height="20" as="geometry" />
        </mxCell>
        <mxCell id="y3QHWY9e4oZUEy-OPm5N-77" value="data_receita" style="text;strokeColor=none;fillColor=none;align=left;verticalAlign=middle;spacingLeft=4;spacingRight=4;overflow=hidden;points=[[0,0.5],[1,0.5]];portConstraint=eastwest;rotatable=0;whiteSpace=wrap;html=1;labelBackgroundColor=none;fontColor=#5C5C5C;" vertex="1" parent="1">
          <mxGeometry x="338" y="782" width="80" height="20" as="geometry" />
        </mxCell>
        <mxCell id="y3QHWY9e4oZUEy-OPm5N-78" value="medicamento" style="text;strokeColor=none;fillColor=none;align=left;verticalAlign=middle;spacingLeft=4;spacingRight=4;overflow=hidden;points=[[0,0.5],[1,0.5]];portConstraint=eastwest;rotatable=0;whiteSpace=wrap;html=1;labelBackgroundColor=none;fontColor=#5C5C5C;" vertex="1" parent="1">
          <mxGeometry x="338" y="802" width="86" height="20" as="geometry" />
        </mxCell>
        <mxCell id="y3QHWY9e4oZUEy-OPm5N-79" value="id_medico" style="text;strokeColor=none;fillColor=none;align=left;verticalAlign=middle;spacingLeft=4;spacingRight=4;overflow=hidden;points=[[0,0.5],[1,0.5]];portConstraint=eastwest;rotatable=0;whiteSpace=wrap;html=1;labelBackgroundColor=none;fontColor=#5C5C5C;" vertex="1" parent="1">
          <mxGeometry x="338" y="762" width="90" height="20" as="geometry" />
        </mxCell>
        <mxCell id="y3QHWY9e4oZUEy-OPm5N-80" value="dosagem&lt;span style=&quot;color: rgba(0, 0, 0, 0); font-family: monospace; font-size: 0px; text-wrap-mode: nowrap;&quot;&gt;%3CmxGraphModel%3E%3Croot%3E%3CmxCell%20id%3D%220%22%2F%3E%3CmxCell%20id%3D%221%22%20parent%3D%220%22%2F%3E%3CmxCell%20id%3D%222%22%20value%3D%22medicamento%22%20style%3D%22text%3BstrokeColor%3Dnone%3BfillColor%3Dnone%3Balign%3Dleft%3BverticalAlign%3Dmiddle%3BspacingLeft%3D4%3BspacingRight%3D4%3Boverflow%3Dhidden%3Bpoints%3D%5B%5B0%2C0.5%5D%2C%5B1%2C0.5%5D%5D%3BportConstraint%3Deastwest%3Brotatable%3D0%3BwhiteSpace%3Dwrap%3Bhtml%3D1%3B%22%20vertex%3D%221%22%20parent%3D%221%22%3E%3CmxGeometry%20x%3D%22344%22%20y%3D%22789%22%20width%3D%2286%22%20height%3D%2220%22%20as%3D%22geometry%22%2F%3E%3C%2FmxCell%3E%3C%2Froot%3E%3C%2FmxGraphModel%3E&lt;/span&gt;" style="text;strokeColor=none;fillColor=none;align=left;verticalAlign=middle;spacingLeft=4;spacingRight=4;overflow=hidden;points=[[0,0.5],[1,0.5]];portConstraint=eastwest;rotatable=0;whiteSpace=wrap;html=1;labelBackgroundColor=none;fontColor=#5C5C5C;" vertex="1" parent="1">
          <mxGeometry x="338" y="822" width="86" height="20" as="geometry" />
        </mxCell>
        <mxCell id="y3QHWY9e4oZUEy-OPm5N-81" value="frequencia" style="text;strokeColor=none;fillColor=none;align=left;verticalAlign=middle;spacingLeft=4;spacingRight=4;overflow=hidden;points=[[0,0.5],[1,0.5]];portConstraint=eastwest;rotatable=0;whiteSpace=wrap;html=1;labelBackgroundColor=none;fontColor=#5C5C5C;" vertex="1" parent="1">
          <mxGeometry x="338" y="841" width="86" height="20" as="geometry" />
        </mxCell>
        <mxCell id="y3QHWY9e4oZUEy-OPm5N-82" value="duracao" style="text;strokeColor=none;fillColor=none;align=left;verticalAlign=middle;spacingLeft=4;spacingRight=4;overflow=hidden;points=[[0,0.5],[1,0.5]];portConstraint=eastwest;rotatable=0;whiteSpace=wrap;html=1;labelBackgroundColor=none;fontColor=#5C5C5C;" vertex="1" parent="1">
          <mxGeometry x="338" y="859" width="86" height="20" as="geometry" />
        </mxCell>
        <mxCell id="y3QHWY9e4oZUEy-OPm5N-83" value="instrucoes" style="text;strokeColor=none;fillColor=none;align=left;verticalAlign=middle;spacingLeft=4;spacingRight=4;overflow=hidden;points=[[0,0.5],[1,0.5]];portConstraint=eastwest;rotatable=0;whiteSpace=wrap;html=1;labelBackgroundColor=none;fontColor=#5C5C5C;" vertex="1" parent="1">
          <mxGeometry x="338" y="875" width="86" height="20" as="geometry" />
        </mxCell>
        <mxCell id="y3QHWY9e4oZUEy-OPm5N-84" value="" style="edgeStyle=elbowEdgeStyle;elbow=vertical;endArrow=classic;html=1;curved=0;rounded=0;endSize=8;startSize=8;entryX=0.5;entryY=0;entryDx=0;entryDy=0;labelBackgroundColor=none;strokeColor=#006658;fontColor=default;" edge="1" parent="1" target="y3QHWY9e4oZUEy-OPm5N-53">
          <mxGeometry width="50" height="50" relative="1" as="geometry">
            <mxPoint x="408" y="444" as="sourcePoint" />
            <mxPoint x="474" y="344" as="targetPoint" />
          </mxGeometry>
        </mxCell>
        <mxCell id="y3QHWY9e4oZUEy-OPm5N-86" value="id_enfermeiro" style="text;strokeColor=none;fillColor=none;align=left;verticalAlign=middle;spacingLeft=4;spacingRight=4;overflow=hidden;points=[[0,0.5],[1,0.5]];portConstraint=eastwest;rotatable=0;whiteSpace=wrap;html=1;labelBackgroundColor=none;fontColor=#5C5C5C;" vertex="1" parent="1">
          <mxGeometry x="338" y="608" width="90" height="20" as="geometry" />
        </mxCell>
        <mxCell id="y3QHWY9e4oZUEy-OPm5N-89" value="1:N" style="text;html=1;align=center;verticalAlign=middle;whiteSpace=wrap;rounded=0;labelBackgroundColor=none;fontColor=#5C5C5C;" vertex="1" parent="1">
          <mxGeometry x="624" y="463" width="60" height="30" as="geometry" />
        </mxCell>
        <mxCell id="y3QHWY9e4oZUEy-OPm5N-90" value="1:N" style="text;html=1;align=center;verticalAlign=middle;whiteSpace=wrap;rounded=0;labelBackgroundColor=none;fontColor=#5C5C5C;" vertex="1" parent="1">
          <mxGeometry x="368" y="463" width="60" height="30" as="geometry" />
        </mxCell>
        <mxCell id="y3QHWY9e4oZUEy-OPm5N-91" value="1:N" style="text;html=1;align=center;verticalAlign=middle;whiteSpace=wrap;rounded=0;labelBackgroundColor=none;fontColor=#5C5C5C;" vertex="1" parent="1">
          <mxGeometry x="140" y="463" width="60" height="30" as="geometry" />
        </mxCell>
        <mxCell id="y3QHWY9e4oZUEy-OPm5N-92" value="1:1" style="text;html=1;align=center;verticalAlign=middle;whiteSpace=wrap;rounded=0;labelBackgroundColor=none;fontColor=#5C5C5C;" vertex="1" parent="1">
          <mxGeometry x="388" y="664" width="60" height="30" as="geometry" />
        </mxCell>
      </root>
    </mxGraphModel>
  </diagram>
</mxfile>
